<?xml version="1.0" encoding="utf-8"?>
<!-- Generator: Adobe Illustrator 19.1.0, SVG Export Plug-In . SVG Version: 6.00 Build 0)  -->
<svg version="1.1" id="Layer_1" xmlns="http://www.w3.org/2000/svg" xmlns:xlink="http://www.w3.org/1999/xlink" x="0px" y="0px"
	 viewBox="0 0 300 130" style="enable-background:new 0 0 300 130;" xml:space="preserve">
<style type="text/css">
	.st0{fill-rule:evenodd;clip-rule:evenodd;fill:#F3BB12;}
	.st1{fill-rule:evenodd;clip-rule:evenodd;fill:#FFFFFF;stroke:#F0BB14;stroke-width:2;stroke-miterlimit:10;}
	.st2{fill:#FFFFFF;stroke:#191B5B;stroke-miterlimit:10;}
	.st3{fill:#0B0146;}
	.st4{fill-rule:evenodd;clip-rule:evenodd;fill:none;}
	.st5{fill:#F3BB12;stroke:#FFFFFF;stroke-width:0.5;stroke-miterlimit:10;}
	.st6{font-family:'ArialRoundedMTBold';}
	.st7{font-size:16px;}
</style>
<g>
	<path class="st0" d="M287.8,64.7c4-9.1,3.1-19.7-2.3-28c-5.5-8.4-14.8-13.4-24.7-13.4H54.3c-16.3,0-29.6,13.2-29.6,29.6
		c0,16.3,13.2,29.6,29.6,29.6h206.4C272.4,82.4,283.1,75.5,287.8,64.7z"/>
	<circle class="st1" cx="47.8" cy="52.8" r="43.2"/>
	<g>
		<polygon class="st2" points="125.4,62.4 118.2,58.8 111,62.4 112.2,54.5 106.7,48.7 114.6,47.4 118.3,40.3 122,47.5 129.9,48.8 
			124.2,54.5 		"/>
		<polygon class="st2" points="160.6,62.4 153.5,58.8 146.3,62.4 147.5,54.5 141.9,48.7 149.8,47.4 153.5,40.3 157.2,47.5 
			165.1,48.8 159.5,54.5 		"/>
		<polygon class="st2" points="195.8,62.4 188.7,58.8 181.5,62.4 182.7,54.5 177.1,48.7 185,47.4 188.8,40.3 192.4,47.5 200.3,48.8 
			194.7,54.5 		"/>
		<polygon class="st2" points="231.1,62.4 223.9,58.8 216.7,62.4 218,54.5 212.4,48.7 220.3,47.4 224,40.3 227.7,47.5 235.6,48.8 
			229.9,54.5 		"/>
		<polygon class="st2" points="266.3,62.4 259.2,58.8 252,62.4 253.2,54.5 247.6,48.7 255.5,47.4 259.3,40.3 262.9,47.5 270.8,48.8 
			265.2,54.5 		"/>
	</g>
	<g>
		<path class="st3" d="M28.9,53.9L30.2,42h11.3v3.1h-8.3l-0.6,5.4c0.4-0.3,0.9-0.6,1.5-0.8c0.6-0.2,1.2-0.3,1.9-0.3
			c2,0,3.6,0.6,4.7,1.9c1.1,1.3,1.7,3.1,1.7,5.3c0,2.1-0.6,3.8-1.8,5.1c-1.2,1.3-2.9,2-5.2,2c-1.9,0-3.5-0.5-4.8-1.5
			c-1.3-1-1.9-2.5-1.9-4.4l0-0.1l3.3-0.1c0,1,0.3,1.8,0.9,2.4c0.6,0.6,1.4,0.9,2.4,0.9c1.1,0,1.9-0.4,2.5-1.2
			c0.6-0.8,0.9-1.8,0.9-3.1c0-1.3-0.3-2.3-0.9-3.1c-0.6-0.8-1.4-1.2-2.6-1.2c-1,0-1.7,0.2-2.2,0.5c-0.5,0.3-0.8,0.8-1,1.4L28.9,53.9
			z"/>
		<path class="st3" d="M49.5,63.4H46V60h3.6V63.4z"/>
		<path class="st3" d="M67.7,55.2c0,2.8-0.6,4.9-1.9,6.4c-1.3,1.5-3,2.2-5.1,2.2c-2.2,0-3.9-0.7-5.1-2.2c-1.3-1.5-1.9-3.6-1.9-6.4
			v-4.9c0-2.8,0.6-4.9,1.9-6.4s3-2.2,5.1-2.2c2.2,0,3.9,0.7,5.1,2.2c1.3,1.5,1.9,3.6,1.9,6.4V55.2z M64.1,49.7c0-1.8-0.3-3-0.9-3.9
			c-0.6-0.8-1.4-1.3-2.6-1.3s-2,0.4-2.6,1.3c-0.6,0.8-0.9,2.1-0.9,3.9v5.9c0,1.8,0.3,3.1,0.9,3.9c0.6,0.8,1.5,1.3,2.6,1.3
			c1.1,0,2-0.4,2.6-1.3c0.6-0.8,0.9-2.1,0.9-3.9V49.7z"/>
	</g>
	<rect x="84.5" y="93.5" class="st4" width="218.5" height="32"/>
	<text transform="matrix(1 0 0 1 84.5402 105.1164)"><tspan x="0" y="0" class="st5 st6 st7">TOP RATED CUSTOMER </tspan><tspan x="0" y="19.2" class="st5 st6 st7">SERVICE - MOROCCO   </tspan></text>
</g>
</svg>
